# xmcd
#
# Track frame offsets:
#	150
#	18692
#	37795
#	53845
#	77697
#	100575
#	117837
#	134732
#	152667
#	174802
#	189397
#	206970
#
# Disc length: 2975
#
# Revision: 1
# Processed by: cddbd v1.5.1PL0 Copyright (c) Steve Scherf et al.
# Submitted via: FreeRIP 2.90 
# Normalized: r0:DSETVAR1
#
DISCID=960b9d0c
DTITLE=Various Artist - Soul Years 1982 [CD1/2)
DYEAR=1991
DGENRE=R&B
TTITLE0=Marvin Gaye - Sexual Healing
TTITLE1=Shalamar - A night to remember
TTITLE2=Kool and the Gang - Ooh, la, la, la, let's go dancing
TTITLE3=Odyssey - Inside out
TTITLE4=Ray Parker Jr. - Let me go
TTITLE5=Shakatak - Easier said than done
TTITLE6=Evelyn King - Love come down
TTITLE7=Candi Station - Suspicious minds
TTITLE8=Atlantik Starr - Cirles
TTITLE9=Grandmaster Flash and The Fourious Five - The message
TTITLE10=Sugarhill Gang - The lover in you
TTITLE11=Junior - Mama used to say
EXTD=
EXTT0=
EXTT1=
EXTT2=
EXTT3=
EXTT4=
EXTT5=
EXTT6=
EXTT7=
EXTT8=
EXTT9=
EXTT10=
EXTT11=
PLAYORDER=
